<svg xmlns="http://www.w3.org/2000/svg" width="18" height="18" fill="none"><path fill="#000" d="M17.334 12.492c0 3.033-1.809 4.841-4.842 4.841H11.5a.836.836 0 0 1-.833-.833v-4.808c0-.225.183-.417.408-.417l1.467-.025a.266.266 0 0 0 .242-.208l.291-1.592a.252.252 0 0 0-.25-.292l-1.775.025a.424.424 0 0 1-.425-.408l-.033-2.042a.25.25 0 0 1 .25-.25l2-.033c.142 0 .25-.108.25-.25l-.033-2a.246.246 0 0 0-.25-.25l-2.25.033A2.497 2.497 0 0 0 8.1 6.525l.042 2.292a.413.413 0 0 1-.408.425l-1 .016a.246.246 0 0 0-.25.25l.025 1.584c0 .141.108.25.25.25l1-.017c.233 0 .416.183.425.408l.075 4.75a.834.834 0 0 1-.834.85H5.51c-3.034 0-4.842-1.808-4.842-4.85V5.508C.667 2.475 2.475.667 5.509.667h6.983c3.033 0 4.842 1.808 4.842 4.841v6.984Z"/></svg>