<svg xmlns="http://www.w3.org/2000/svg" width="18" height="18" fill="none"><path fill="#292D32" d="M12.492.667H5.509C2.475.667.667 2.475.667 5.508v6.975c0 3.042 1.808 4.85 4.842 4.85h6.975c3.033 0 4.841-1.808 4.841-4.841V5.508c.009-3.033-1.8-4.841-4.833-4.841ZM9 12.233A3.236 3.236 0 0 1 5.767 9 3.236 3.236 0 0 1 9 5.767 3.236 3.236 0 0 1 12.234 9 3.236 3.236 0 0 1 9 12.233Zm4.934-7.5c-.042.1-.1.192-.175.275a.963.963 0 0 1-.275.175.83.83 0 0 1-.909-.175.963.963 0 0 1-.175-.275.83.83 0 0 1-.066-.316.83.83 0 0 1 .066-.317.86.86 0 0 1 .175-.275.832.832 0 0 1 .909-.175c.05.017.1.042.15.075.041.025.083.067.125.1a.86.86 0 0 1 .175.275.83.83 0 0 1 .066.317.83.83 0 0 1-.066.316Z"/></svg>