<svg width="71" height="19" viewBox="0 0 71 19" fill="none" xmlns="http://www.w3.org/2000/svg">
<path d="M0.728 18V1.08H8.408C10.312 1.08 11.784 1.536 12.824 2.448C13.864 3.344 14.384 4.6 14.384 6.216C14.384 7.272 14.144 8.184 13.664 8.952C13.2 9.704 12.528 10.288 11.648 10.704C10.784 11.104 9.744 11.304 8.528 11.304L8.816 10.776H9.8C10.488 10.776 11.096 10.96 11.624 11.328C12.168 11.696 12.616 12.232 12.968 12.936L15.488 18H11.36L8.744 12.552C8.552 12.088 8.248 11.784 7.832 11.64C7.432 11.48 6.968 11.4 6.44 11.4H4.472V18H0.728ZM4.472 8.712H7.76C8.736 8.712 9.48 8.512 9.992 8.112C10.504 7.712 10.76 7.12 10.76 6.336C10.76 5.552 10.504 4.968 9.992 4.584C9.48 4.184 8.736 3.984 7.76 3.984H4.472V8.712ZM23.2721 18.264C21.1601 18.264 19.5121 17.696 18.3281 16.56C17.1441 15.424 16.5521 13.88 16.5521 11.928C16.5521 10.664 16.8001 9.56 17.2961 8.616C17.8081 7.672 18.5121 6.936 19.4081 6.408C20.3201 5.864 21.3841 5.592 22.6001 5.592C23.8001 5.592 24.8001 5.848 25.6001 6.36C26.4161 6.872 27.0241 7.592 27.4241 8.52C27.8401 9.432 28.0481 10.496 28.0481 11.712V12.552H19.5281V10.752H25.4081L25.0001 11.088C25.0001 10.08 24.7921 9.32 24.3761 8.808C23.9761 8.28 23.3921 8.016 22.6241 8.016C21.7761 8.016 21.1201 8.328 20.6561 8.952C20.2081 9.576 19.9841 10.472 19.9841 11.64V12.024C19.9841 13.208 20.2721 14.088 20.8481 14.664C21.4401 15.24 22.2881 15.528 23.3921 15.528C24.0481 15.528 24.6641 15.448 25.2401 15.288C25.8321 15.112 26.3921 14.84 26.9201 14.472L27.9281 16.872C27.3201 17.32 26.6161 17.664 25.8161 17.904C25.0321 18.144 24.1841 18.264 23.2721 18.264ZM30.3474 18V5.832H33.9714V18H30.3474ZM30.2034 3.84V0.456H34.0914V3.84H30.2034ZM40.3653 18L35.4693 5.832H39.1893L42.4053 14.592H41.7813L45.0213 5.832H47.4213L50.6373 14.592H50.1333L53.3013 5.832H56.8053L51.9333 18H48.8133L45.3573 9.024H46.8213L43.4853 18H40.3653ZM62.8019 18.264C61.7459 18.264 60.8179 18.008 60.0179 17.496C59.2179 16.984 58.5939 16.256 58.1459 15.312C57.6979 14.368 57.4739 13.232 57.4739 11.904C57.4739 10.592 57.6979 9.464 58.1459 8.52C58.5939 7.576 59.2179 6.856 60.0179 6.36C60.8179 5.848 61.7459 5.592 62.8019 5.592C63.7779 5.592 64.6499 5.832 65.4179 6.312C66.2019 6.776 66.7139 7.408 66.9539 8.208H66.6899L66.9779 5.832H70.4579C70.4099 6.36 70.3619 6.896 70.3139 7.44C70.2819 7.968 70.2659 8.488 70.2659 9V18H66.6659L66.6419 15.72H66.9299C66.6739 16.488 66.1619 17.104 65.3939 17.568C64.6259 18.032 63.7619 18.264 62.8019 18.264ZM63.9059 15.528C64.7379 15.528 65.4099 15.232 65.9219 14.64C66.4339 14.048 66.6899 13.136 66.6899 11.904C66.6899 10.672 66.4339 9.768 65.9219 9.192C65.4099 8.616 64.7379 8.328 63.9059 8.328C63.0739 8.328 62.4019 8.616 61.8899 9.192C61.3779 9.768 61.1219 10.672 61.1219 11.904C61.1219 13.136 61.3699 14.048 61.8659 14.64C62.3779 15.232 63.0579 15.528 63.9059 15.528Z" fill="#333333"/>
</svg>
