<svg xmlns="http://www.w3.org/2000/svg" width="71" height="19" fill="none"><path fill="#333" d="M.728 18V1.08h7.68c1.904 0 3.376.456 4.416 1.368 1.04.896 1.56 2.152 1.56 3.768 0 1.056-.24 1.968-.72 2.736-.464.752-1.136 1.336-2.016 1.752-.864.4-1.904.6-3.12.6l.288-.528H9.8c.688 0 1.296.184 1.824.552.544.368.992.904 1.344 1.608L15.488 18H11.36l-2.616-5.448c-.192-.464-.496-.768-.912-.912-.4-.16-.864-.24-1.392-.24H4.472V18H.728Zm3.744-9.288H7.76c.976 0 1.72-.2 2.232-.6.512-.4.768-.992.768-1.776s-.256-1.368-.768-1.752c-.512-.4-1.256-.6-2.232-.6H4.472v4.728Zm18.8 9.552c-2.112 0-3.76-.568-4.944-1.704-1.184-1.136-1.776-2.68-1.776-4.632 0-1.264.248-2.368.744-3.312a5.613 5.613 0 0 1 2.112-2.208c.912-.544 1.976-.816 3.192-.816 1.2 0 2.2.256 3 .768.816.512 1.424 1.232 1.824 2.16.416.912.624 1.976.624 3.192v.84h-8.52v-1.8h5.88l-.408.336c0-1.008-.208-1.768-.624-2.28-.4-.528-.984-.792-1.752-.792-.848 0-1.504.312-1.968.936-.448.624-.672 1.52-.672 2.688v.384c0 1.184.288 2.064.864 2.64.592.576 1.44.864 2.544.864.656 0 1.272-.08 1.848-.24a5.831 5.831 0 0 0 1.68-.816l1.008 2.4a6.838 6.838 0 0 1-2.112 1.032c-.784.24-1.632.36-2.544.36ZM30.347 18V5.832h3.624V18h-3.624Zm-.144-14.16V.456h3.888V3.84h-3.888ZM40.365 18 35.47 5.832h3.72l3.216 8.76h-.624l3.24-8.76h2.4l3.216 8.76h-.504l3.168-8.76h3.504L51.933 18h-3.12l-3.456-8.976h1.464L43.485 18h-3.12Zm22.437.264c-1.056 0-1.984-.256-2.784-.768-.8-.512-1.424-1.24-1.872-2.184-.448-.944-.672-2.08-.672-3.408 0-1.312.224-2.44.672-3.384.448-.944 1.072-1.664 1.872-2.16.8-.512 1.728-.768 2.784-.768.976 0 1.848.24 2.616.72.784.464 1.296 1.096 1.536 1.896h-.264l.288-2.376h3.48l-.144 1.608A25.787 25.787 0 0 0 70.266 9v9h-3.6l-.024-2.28h.288c-.256.768-.768 1.384-1.536 1.848-.768.464-1.632.696-2.592.696Zm1.104-2.736c.832 0 1.504-.296 2.016-.888.512-.592.768-1.504.768-2.736 0-1.232-.256-2.136-.768-2.712-.512-.576-1.184-.864-2.016-.864-.832 0-1.504.288-2.016.864-.512.576-.768 1.48-.768 2.712 0 1.232.248 2.144.744 2.736.512.592 1.192.888 2.04.888Z"/></svg>